<svg xmlns="http://www.w3.org/2000/svg" width="50" height="50" viewBox="0 0 50 50">
    <path fill="#fff" d="M 19.875 0.40625 C 16.194 0.47425 13.507 1.6 11.875 3.75 C 9.942 6.298 9.5895 10.14475 10.8125 15.21875 C 10.3615 15.76975 10.02325 16.60675 10.15625 17.71875 C 10.42125 19.92375 11.278 20.8265 12 21.1875 C 12.343 22.9175 13.29875 24.86425 14.21875 25.78125 L 14.21875 26.25 C 14.22775 27.266 14.222 28.14525 14.125 29.28125 C 13.513 30.68725 11.475 31.5135 9.125 32.4375 C 5.219 33.9745 0.364 35.8725 0 41.9375 L -0.0625 43 L 15.0625 43 L 18.03125 43 L 22 43 L 24.9375 43 L 27.09375 43 C 28.995277 47.122301 33.170223 50 38 50 C 44.617 50 50 44.617 50 38 C 50 31.383 44.617 26 38 26 C 33.889345 26 30.257247 28.058613 28.09375 31.21875 C 27.37875 30.85475 26.798 30.461 26.375 30 C 26.197 29.803 26.02625 29.57025 25.90625 29.28125 C 25.80925 28.14525 25.83475 27.263 25.84375 26.25 L 25.84375 25.78125 C 26.73975 24.86625 27.66 22.9195 28 21.1875 C 28.723 20.8255 29.57875 19.92275 29.84375 17.71875 C 29.97475 16.62875 29.65475 15.801 29.21875 15.25 C 29.79975 13.271 30.9885 8.14275 28.9375 4.84375 C 28.0795 3.45975 26.7765 2.589 25.0625 2.25 C 24.1185 1.057 22.305 0.40625 19.875 0.40625 z M 38 28 C 43.514 28 48 32.486 48 38 C 48 43.514 43.514 48 38 48 C 32.486 48 28 43.514 28 38 C 28 32.486 32.486 28 38 28 z M 37 32 L 37 37 L 32 37 L 32 39 L 37 39 L 37 44 L 39 44 L 39 39 L 44 39 L 44 37 L 39 37 L 39 32 L 37 32 z M 26.4375 34.84375 C 26.372391 35.081488 26.300572 35.319161 26.25 35.5625 C 26.300816 35.317132 26.371877 35.083432 26.4375 34.84375 z M 26.0625 36.875 C 26.027448 37.247818 26 37.618167 26 38 C 26 37.621084 26.027876 37.24499 26.0625 36.875 z"></path>
</svg>