<?xml version="1.0" encoding="iso-8859-1"?>
<!-- Generator: Adobe Illustrator 16.0.0, SVG Export Plug-In . SVG Version: 6.00 Build 0)  -->
<!DOCTYPE svg PUBLIC "-//W3C//DTD SVG 1.1//EN" "http://www.w3.org/Graphics/SVG/1.1/DTD/svg11.dtd">
<svg xmlns="http://www.w3.org/2000/svg" xmlns:xlink="http://www.w3.org/1999/xlink" version="1.1" id="Capa_1" x="0px" y="0px" width="512px" height="512px" viewBox="0 0 447.137 447.137" style="enable-background:new 0 0 447.137 447.137;" xml:space="preserve">
<g>
	<g>
		<path d="M327.365,37.204c-21.607,0-42.332,5.661-60.651,16.479c-16.782-10.697-36.403-16.479-56.471-16.479    c-35.564,0-68.697,18.29-87.938,47.596c-5.666-0.936-11.417-1.407-17.206-1.407C47.147,83.394,0,130.585,0,188.594    c0,58.007,47.147,105.202,105.099,105.202c8.807,0,17.47-1.08,25.886-3.219c19.838,22.82,48.589,36.105,79.258,36.105    c21.67,0,42.482-6.551,60.185-18.949c12.725-8.912,23.191-20.355,30.838-33.614c8.525,1.9,17.256,2.859,26.102,2.859    c66.041,0,119.77-53.78,119.77-119.888C447.135,90.986,393.406,37.204,327.365,37.204z M137.268,207.653    c-14.199,0-25.708-11.51-25.708-25.709c0-14.198,11.51-25.708,25.708-25.708c14.198,0,25.708,11.51,25.708,25.708    C162.977,196.143,151.466,207.653,137.268,207.653z M223.567,207.653c-14.198,0-25.708-11.51-25.708-25.709    c0-14.198,11.51-25.708,25.708-25.708c14.199,0,25.708,11.51,25.708,25.708S237.766,207.653,223.567,207.653z M309.865,207.653    c-14.197,0-25.707-11.51-25.707-25.709c0-14.198,11.51-25.708,25.707-25.708c14.199,0,25.709,11.51,25.709,25.708    S324.064,207.653,309.865,207.653z" fill="#FFFFFF"/>
		<circle cx="95.58" cy="348.759" r="29.269" fill="#FFFFFF"/>
		<circle cx="176.015" cy="391.139" r="18.794" fill="#FFFFFF"/>
	</g>
</g>
<g>
</g>
<g>
</g>
<g>
</g>
<g>
</g>
<g>
</g>
<g>
</g>
<g>
</g>
<g>
</g>
<g>
</g>
<g>
</g>
<g>
</g>
<g>
</g>
<g>
</g>
<g>
</g>
<g>
</g>
</svg>
