<svg xmlns="http://www.w3.org/2000/svg" xmlns:xlink="http://www.w3.org/1999/xlink" version="1.1" id="Capa_1" x="0px" y="0px" viewBox="0 0 298.443 298.443" style="enable-background:new 0 0 298.443 298.443;" xml:space="preserve" width="512px" height="512px">
<path d="M278.491,219.385c-1.056-4.006-5.158-6.399-9.163-5.342c-4.006,1.055-6.397,5.158-5.342,9.163l14.056,53.35l-52.655-13.874  c-1.984-0.523-4.099-0.21-5.847,0.868c-21.111,13.014-45.427,19.893-70.319,19.893C75.211,283.443,15,223.232,15,149.222  S75.211,15,149.222,15s134.222,60.211,134.222,134.222c0,8.925-0.884,17.849-2.627,26.522c-0.816,4.061,1.814,8.014,5.875,8.831  c4.061,0.813,8.015-1.815,8.831-5.875c1.938-9.644,2.921-19.562,2.921-29.477C298.443,66.94,231.503,0,149.222,0S0,66.94,0,149.222  s66.94,149.222,149.222,149.222c26.586,0,52.585-7.061,75.405-20.45l62.035,16.346c2.582,0.679,5.328-0.063,7.214-1.949  s2.629-4.634,1.949-7.214L278.491,219.385z" fill="#FFFFFF"/>
</svg>
