<?xml version="1.0" encoding="iso-8859-1"?>
<!DOCTYPE svg PUBLIC "-//W3C//DTD SVG 1.1//EN" "http://www.w3.org/Graphics/SVG/1.1/DTD/svg11.dtd">
<svg xmlns="http://www.w3.org/2000/svg" xmlns:xlink="http://www.w3.org/1999/xlink" version="1.1" viewBox="0 0 512 512" enable-background="new 0 0 512 512" width="512px" height="512px">
  <g>
    <path d="M496,144h-80v-16c0-8.836-7.164-16-16-16H223.492l-35.203-42.242C185.25,66.109,180.75,64,176,64H16   C7.164,64,0,71.164,0,80v304c0,35.289,28.711,64,64,64h384c35.289,0,64-28.711,64-64V160C512,151.164,504.836,144,496,144z M64,416   c-17.648,0-32-14.352-32-32V96h136.508l35.203,42.242C206.75,141.891,211.25,144,216,144h168v240c0,11.648,3.125,22.578,8.586,32   H64z M480,384c0,17.648-14.352,32-32,32s-32-14.352-32-32V176h64V384z" fill="#FFFFFF"/>
    <path d="m144,176h-64c-8.836,0-16,7.164-16,16s7.164,16 16,16h64c8.836,0 16-7.164 16-16s-7.164-16-16-16z" fill="#FFFFFF"/>
  </g>
</svg>
