<svg xmlns="http://www.w3.org/2000/svg" viewBox="0 0 50 50">
    <path fill="#fff" d="M 7.90625 1.96875 A 1.0001 1.0001 0 0 0 7.78125 2 A 1.0001 1.0001 0 0 0 7 3 L 7 10 L 5 10 C 3.3550302 10 2 11.35503 2 13 L 2 15 C 2 16.64497 3.3550302 18 5 18 L 11 18 C 12.64497 18 14 16.64497 14 15 L 14 13 C 14 11.35503 12.64497 10 11 10 L 9 10 L 9 3 A 1.0001 1.0001 0 0 0 7.90625 1.96875 z M 24.90625 1.96875 A 1.0001 1.0001 0 0 0 24.78125 2 A 1.0001 1.0001 0 0 0 24 3 L 24 31 L 22 31 C 20.35503 31 19 32.35503 19 34 L 19 36 C 19 37.64497 20.35503 39 22 39 L 28 39 C 29.64497 39 31 37.64497 31 36 L 31 34 C 31 32.35503 29.64497 31 28 31 L 26 31 L 26 3 A 1.0001 1.0001 0 0 0 24.90625 1.96875 z M 41.90625 1.96875 A 1.0001 1.0001 0 0 0 41.78125 2 A 1.0001 1.0001 0 0 0 41 3 L 41 13 L 39 13 C 37.35503 13 36 14.35503 36 16 L 36 18 C 36 19.64497 37.35503 21 39 21 L 45 21 C 46.64497 21 48 19.64497 48 18 L 48 16 C 48 14.35503 46.64497 13 45 13 L 43 13 L 43 3 A 1.0001 1.0001 0 0 0 41.90625 1.96875 z M 5 12 L 7.8125 12 L 8.21875 12 L 11 12 C 11.56503 12 12 12.43497 12 13 L 12 15 C 12 15.56503 11.56503 16 11 16 L 5 16 C 4.4349698 16 4 15.56503 4 15 L 4 13 C 4 12.43497 4.4349698 12 5 12 z M 39 15 L 41.8125 15 L 42.21875 15 L 45 15 C 45.56503 15 46 15.43497 46 16 L 46 18 C 46 18.56503 45.56503 19 45 19 L 39 19 C 38.43497 19 38 18.56503 38 18 L 38 16 C 38 15.43497 38.43497 15 39 15 z M 7 19 L 7 25.8125 A 1.0001 1.0001 0 0 0 7 26 L 7 40 L 7 47 A 1.0001 1.0001 0 1 0 9 47 L 9 26 A 1.0001 1.0001 0 0 0 9 25.8125 L 9 19 L 7 19 z M 41 22 L 41 28.8125 A 1.0001 1.0001 0 0 0 41 29 L 41 43 L 41 47 A 1.0001 1.0001 0 1 0 43 47 L 43 29 A 1.0001 1.0001 0 0 0 43 28.8125 L 43 22 L 41 22 z M 22 33 L 28 33 C 28.56503 33 29 33.43497 29 34 L 29 36 C 29 36.56503 28.56503 37 28 37 L 22 37 C 21.43497 37 21 36.56503 21 36 L 21 34 C 21 33.43497 21.43497 33 22 33 z M 24 40 L 24 41.8125 A 1.0001 1.0001 0 0 0 24 42 L 24 44 L 24 47 A 1.0001 1.0001 0 1 0 26 47 L 26 42 A 1.0001 1.0001 0 0 0 26 41.8125 L 26 40 L 24 40 z"></path>
</svg>