<?xml version="1.0" encoding="iso-8859-1"?>
<!-- Generator: Adobe Illustrator 19.1.0, SVG Export Plug-In . SVG Version: 6.00 Build 0)  -->
<svg xmlns="http://www.w3.org/2000/svg" xmlns:xlink="http://www.w3.org/1999/xlink" version="1.1" id="Capa_1" x="0px" y="0px" viewBox="0 0 277.927 277.927" style="enable-background:new 0 0 277.927 277.927;" xml:space="preserve" width="512px" height="512px">
<g>
	<g>
		<path d="M261.893,58.792H16.034C7.483,58.792,0,51.31,0,42.758s7.483-16.034,16.034-16.034h245.858    c8.552,0,16.034,7.483,16.034,16.034S270.444,58.792,261.893,58.792z" fill="#FFFFFF"/>
		<path d="M261.893,154.998H16.034C7.483,154.998,0,147.515,0,138.963c0-8.552,7.483-16.034,16.034-16.034    h245.858c8.552,0,16.034,7.483,16.034,16.034C277.927,147.515,270.444,154.998,261.893,154.998z" fill="#FFFFFF"/>
		<path d="M261.893,251.203H16.034C7.483,251.203,0,243.721,0,235.169s7.483-16.034,16.034-16.034h245.858    c8.552,0,16.034,7.483,16.034,16.034S270.444,251.203,261.893,251.203z" fill="#FFFFFF"/>
		<g>
			<circle cx="81.24" cy="42.758" r="36.344" fill="#68f5ff"/>
			<circle cx="196.687" cy="138.963" r="36.344" fill="#68f5ff"/>
			<circle cx="81.24" cy="235.169" r="36.344" fill="#68f5ff"/>
		</g>
	</g>
</g>
</svg>
