<?xml version="1.0" encoding="iso-8859-1"?>
<!DOCTYPE svg PUBLIC "-//W3C//DTD SVG 1.1//EN" "http://www.w3.org/Graphics/SVG/1.1/DTD/svg11.dtd">
<svg xmlns="http://www.w3.org/2000/svg" xmlns:xlink="http://www.w3.org/1999/xlink" version="1.1" viewBox="0 0 315.001 315.001" enable-background="new 0 0 315.001 315.001" width="512px" height="512px">
  <g>
    <path d="m156.748,70.046c-57.11,0-103.573,46.463-103.573,103.573 0,57.11 46.463,103.572 103.573,103.572 57.11,0 103.573-46.462 103.573-103.572 5.68434e-14-57.11-46.463-103.573-103.573-103.573zm0,193.145c-49.391,0-89.573-40.182-89.573-89.572 0-49.391 40.183-89.573 89.573-89.573 49.391,0 89.573,40.183 89.573,89.573 2.84217e-14,49.391-40.183,89.572-89.573,89.572z" fill="#FFFFFF"/>
    <path d="m309.484,128.52c0-30.138-24.52-54.656-54.657-54.656-4.956,0-9.855,0.665-14.596,1.977-5.443-4.654-11.276-8.862-17.446-12.568-1.493-35.141-30.536-63.273-66.037-63.273-35.502,0-64.545,28.132-66.037,63.273-6.04,3.628-11.756,7.738-17.101,12.276-4.388-1.114-8.901-1.685-13.436-1.685-30.138,0-54.657,24.518-54.657,54.656 0,17.537 8.437,33.961 22.608,44.241-0.002,0.287-0.011,0.571-0.011,0.857 0,45.509 23.757,85.572 59.519,108.444l-15.224,21.948c-2.203,3.177-1.414,7.538 1.762,9.742 1.217,0.844 2.607,1.249 3.984,1.249 2.217,0 4.398-1.052 5.758-3.011l15.966-23.015c17.157,8.492 36.464,13.276 56.869,13.276 20.85,0 40.555-4.991 57.988-13.834l16.352,23.572c1.36,1.96 3.541,3.011 5.758,3.011 1.377,0 2.768-0.405 3.984-1.249 3.176-2.204 3.965-6.566 1.762-9.742l-15.694-22.623c35.135-22.949 58.418-62.596 58.48-107.588 15.119-10.199 24.106-26.974 24.106-45.278zm-14,0c0,10.64-4.082,20.591-11.234,28.058-3.48-26.172-14.858-49.879-31.653-68.646 0.741-0.04 1.484-0.067 2.23-0.067 22.419-0.001 40.657,18.238 40.657,40.655zm-138.736-114.52c25.118,0 46.141,17.864 51.033,41.555-15.654-6.792-32.91-10.567-51.033-10.567-18.123,0-35.379,3.775-51.033,10.567 4.892-23.691 25.914-41.555 51.033-41.555zm-137.231,114.52c3.55271e-15-22.418 18.238-40.656 40.657-40.656 0.255,0 0.508,0.021 0.763,0.025-16.504,18.425-27.781,41.618-31.487,67.232-6.328-7.31-9.933-16.72-9.933-26.601zm137.231,159.732c-63.209,0-114.633-51.424-114.633-114.633 0-63.208 51.424-114.632 114.633-114.632s114.632,51.424 114.632,114.632c0,63.209-51.423,114.633-114.632,114.633z" fill="#FFFFFF"/>
    <path d="m156.748,110.668c-3.866,0-7,3.134-7,7v53.954l-26.028,41.905c-2.04,3.284-1.031,7.6 2.253,9.64 1.15,0.714 2.426,1.055 3.687,1.055 2.34,0 4.628-1.174 5.953-3.308l27.082-43.602c0.688-1.108 1.054-2.388 1.054-3.693v-55.951c-0.001-3.866-3.135-7-7.001-7z" fill="#FFFFFF"/>
  </g>
</svg>
