<?xml version="1.0" encoding="iso-8859-1"?>
<svg xmlns="http://www.w3.org/2000/svg" xmlns:xlink="http://www.w3.org/1999/xlink" version="1.1" viewBox="0 0 490 490" enable-background="new 0 0 490 490" width="512px" height="512px">
  <g>
    <g>
      <path d="m199.85,99.7l23.7,13.4c9.3-15.5 21.6-22.7 36.1-22.7 8.2,0 15.5,2.1 20.6,7.2 5.2,5.2 8.2,11.3 8.2,18.5s-2.1,13.4-7.2,20.6c-5.2,7.2-13.4,16.5-25.8,28.9l-53.6,53.6v25.8h121.6v-28.9h-80.4l41.2-42.3c12.4-13.4 20.6-23.7 25.8-31.9 5.2-8.2 7.2-16.5 7.2-25.8 0-16.5-5.2-28.9-16.5-38.1-11.3-9.3-24.7-14.4-39.2-14.4-14.4,0-26.8,3.1-36.1,9.3-9.2,6.2-17.4,15.5-25.6,26.8z" fill="#FFFFFF"/>
      <polygon points="421.35,245 449.25,245 449.25,200.7 470.85,200.7 470.85,173.9 449.25,173.9 449.25,141.9 421.35,141.9     421.35,172.9 379.15,172.9 443.05,67.7 410.05,67.7 345.15,173.9 345.15,200.7 421.35,200.7   " fill="#FFFFFF"/>
      <path d="m465.65,335.7l-97.9,21.6 4.1,20.6 64.4-14.4c-39.4,63.2-109.6,105.2-189.6,105.2-123.5,0-223.7-100.2-223.7-223.7s100.2-223.7 223.7-223.7v-21.3c-135.3,0-245,109.7-245,245s109.7,245 245,245c87.2,0 163.7-45.5 207.1-114.1l14,61.8 20.6-4.1-22.7-97.9z" fill="#FFFFFF"/>
    </g>
  </g>
</svg>
