<svg version="1.1" xmlns="http://www.w3.org/2000/svg" xmlns:xlink="http://www.w3.org/1999/xlink" x="0px" y="0px"
	 viewBox="0 0 50 50" enable-background="new 0 0 50 50" xml:space="preserve">
<g id="Layer_1">
	<path fill-rule="evenodd" clip-rule="evenodd" fill="#FFFFFF" d="M10.7,25.2c2.4-3.3,7.5-4.3,11.3-3c2-3.4,5.5-4.8,9.2-4.8
		c0.6,0,1.2,0.1,1.8,0.1c-0.4-2.9-3.2-5.5-6.5-5.5c-0.6,0-1.2,0.1-1.7,0.3c-1.2-2.7-3.9-4.6-7-4.6c-3.2,0-5.9,1.9-7,4.6
		c-0.5-0.1-1.1-0.3-1.7-0.3c-3.6,0-6.6,2.9-6.6,6.5c0,3.6,2.9,6.5,6.6,6.5C9.5,25.2,9.5,25.2,10.7,25.2z"/>
</g>
<g id="Layer_2">
	<g>
		<path fill-rule="evenodd" clip-rule="evenodd" fill="#FFFFFF" d="M40.1,26.5c-0.4,0-0.9,0.1-1.3,0.1l0,0c-0.9-4-4.1-6.9-8.1-6.9
			c-4.6,0-8.3,4-8.3,9c0,0.6-0.5,1.1-1,1.1c-0.6,0-1-0.5-1-1.1c0-1.4,0.3-2.9,0.7-4.1c-0.9-0.3-1.8-0.5-2.8-0.5
			c-4.6,0-8.3,4.2-8.3,9.2s3.7,9,8.3,9c3.6,0,18.8,0,21.8,0c4,0,7.3-3.5,7.3-7.9S44.2,26.5,40.1,26.5z"/>
	</g>
</g>
</svg>
