<svg version="1.1" id="Layer_1" xmlns="http://www.w3.org/2000/svg" xmlns:xlink="http://www.w3.org/1999/xlink" x="0px" y="0px"
	 viewBox="0 0 50 50" enable-background="new 0 0 50 50" xml:space="preserve">
<g>
	<path fill="#F7A700" d="M39.3,26.9C38.4,26.3,38,25.7,38,25c0-0.7,0.5-1.4,1.3-1.9l4.3-2.8c0.4-0.2,0.5-0.7,0.4-1.1
		c-0.1-0.4-0.5-0.7-1-0.7l-5.3,0.1c-1,0-1.8-0.3-2.2-0.9C35,17,35,16.2,35.3,15.4l1.7-4.6c0.2-0.4,0-0.9-0.3-1.2
		c-0.4-0.3-0.8-0.3-1.2,0l-4.1,3c-1.6,1.2-3.4,0.7-4-1.2L26,6.6c-0.3-0.8-1.7-0.8-1.9,0l-1.5,4.7c-0.6,1.9-2.4,2.4-4,1.2l-4.1-3
		c-0.4-0.3-0.8-0.3-1.2,0c-0.4,0.3-0.5,0.7-0.3,1.2l1.7,4.6c0.3,0.9,0.3,1.7-0.1,2.2c-0.4,0.6-1.2,0.9-2.4,0.9c0,0,0,0,0,0L7,18.4
		c-0.5,0-0.8,0.3-1,0.7c-0.1,0.4,0,0.9,0.4,1.1l4.3,2.8c0.8,0.5,1.3,1.2,1.3,1.9c0,0.7-0.5,1.4-1.3,1.9l-4.3,2.8
		c-0.4,0.2-0.5,0.7-0.4,1.1c0.1,0.4,0.5,0.7,1,0.7l5.3-0.1c1,0,1.8,0.3,2.2,0.9c0.4,0.6,0.4,1.4,0.1,2.2l-1.7,4.6
		c-0.2,0.4,0,0.9,0.3,1.1c0.4,0.3,0.8,0.3,1.2,0l4.1-3c1.6-1.2,3.4-0.7,4,1.2l1.5,4.7c0.1,0.4,0.5,0.7,1,0.7c0.4,0,0.8-0.3,1-0.7
		l1.5-4.7c0.6-1.9,2.4-2.4,4-1.2l4.1,3c0.2,0.1,0.4,0.2,0.6,0.2c0.6,0,1-0.4,1-1c0-0.2-0.1-0.4-0.2-0.6l-1.6-4.4
		c-0.3-0.9-0.3-1.6,0.1-2.2c0.4-0.6,1.2-1,2.4-0.9l5.2,0.1c0.5,0,0.8-0.3,1-0.7c0.1-0.4,0-0.9-0.4-1.1L39.3,26.9z M25,32.4
		c-4.1,0-7.4-3.3-7.4-7.4c0-4.1,3.3-7.4,7.4-7.4c4.1,0,7.4,3.3,7.4,7.4C32.4,29.1,29.1,32.4,25,32.4z"/>
</g>
</svg>
