<svg version="1.1" xmlns="http://www.w3.org/2000/svg" xmlns:xlink="http://www.w3.org/1999/xlink" x="0px" y="0px"
	 viewBox="0 0 50 50" enable-background="new 0 0 50 50" xml:space="preserve">
<g id="Layer_3">
	<g>
		<path fill-rule="evenodd" clip-rule="evenodd" fill="#0EBAED" d="M28,40c0,1.7-1.1,3-2.5,3S23,41.7,23,40c0-1.7,2.5-7,2.5-7
			S28,38.4,28,40z"/>
	</g>
	<g>
		<path fill-rule="evenodd" clip-rule="evenodd" fill="#0EBAED" d="M18,40c0,1.7-1.1,3-2.5,3S13,41.7,13,40c0-1.7,2.5-7,2.5-7
			S18,38.4,18,40z"/>
	</g>
	<g>
		<path fill-rule="evenodd" clip-rule="evenodd" fill="#0EBAED" d="M38,40c0,1.7-1.1,3-2.5,3S33,41.7,33,40c0-1.7,2.5-7,2.5-7
			S38,38.4,38,40z"/>
	</g>
</g>
<g id="Layer_2">
</g>
<g id="Layer_4">
	<g>
		<path fill-rule="evenodd" clip-rule="evenodd" fill="#FFFFFF" d="M36.4,14.5c-0.4,0-0.9,0.1-1.3,0.1l0,0c-0.9-4-4.1-6.9-8.1-6.9
			c-4.6,0-8.3,4-8.3,9c0,0.6-0.5,1.1-1,1.1s-1-0.5-1-1.1c0-1.4,0.3-2.9,0.7-4.1c-0.9-0.3-1.8-0.5-2.8-0.5c-4.6,0-8.3,4.2-8.3,9.2
			s3.7,9,8.3,9c3.6,0,18.8,0,21.8,0c4,0,7.3-3.5,7.3-7.9S40.5,14.5,36.4,14.5z"/>
	</g>
</g>
</svg>
