<svg version="1.1" xmlns="http://www.w3.org/2000/svg" xmlns:xlink="http://www.w3.org/1999/xlink" x="0px" y="0px"
	 viewBox="0 0 50 50" enable-background="new 0 0 50 50" xml:space="preserve">
<g id="Layer_3">
</g>
<g id="Layer_2">
</g>
<g id="Layer_4">
	<path fill="#FFFFFF" d="M17.3,37.4h-2.8l2-2c0.1-0.1,0.2-0.3,0.2-0.5c0-0.2-0.1-0.3-0.2-0.5c-0.2-0.2-0.7-0.2-0.9,0l-2,2v-2.8
		c0-0.4-0.3-0.7-0.7-0.7c-0.4,0-0.7,0.3-0.7,0.7v2.8l-2-2c-0.2-0.2-0.7-0.2-0.9,0c-0.1,0.1-0.2,0.3-0.2,0.5c0,0.2,0.1,0.3,0.2,0.5
		l2,2H8.7C8.3,37.4,8,37.7,8,38c0,0.4,0.3,0.7,0.7,0.7h2.8l-2,2c-0.1,0.1-0.2,0.3-0.2,0.5c0,0.2,0.1,0.3,0.2,0.5
		c0.2,0.2,0.7,0.2,0.9,0l2-2v2.8c0,0.4,0.3,0.7,0.7,0.7c0.4,0,0.7-0.3,0.7-0.7v-2.8l2,2c0.2,0.2,0.7,0.2,0.9,0
		c0.3-0.3,0.3-0.7,0-0.9l-2-2h2.8c0.4,0,0.7-0.3,0.7-0.7C18,37.7,17.7,37.4,17.3,37.4z"/>
	<path fill="#FFFFFF" d="M29.8,37.4h-2.8l2-2c0.1-0.1,0.2-0.3,0.2-0.5c0-0.2-0.1-0.3-0.2-0.5c-0.2-0.2-0.7-0.2-0.9,0l-2,2v-2.8
		c0-0.4-0.3-0.7-0.7-0.7c-0.4,0-0.7,0.3-0.7,0.7v2.8l-2-2c-0.2-0.2-0.7-0.2-0.9,0c-0.1,0.1-0.2,0.3-0.2,0.5c0,0.2,0.1,0.3,0.2,0.5
		l2,2h-2.8c-0.4,0-0.7,0.3-0.7,0.7c0,0.4,0.3,0.7,0.7,0.7h2.8l-2,2c-0.1,0.1-0.2,0.3-0.2,0.5c0,0.2,0.1,0.3,0.2,0.5
		c0.2,0.2,0.7,0.2,0.9,0l2-2v2.8c0,0.4,0.3,0.7,0.7,0.7c0.4,0,0.7-0.3,0.7-0.7v-2.8l2,2c0.2,0.2,0.7,0.2,0.9,0
		c0.3-0.3,0.3-0.7,0-0.9l-2-2h2.8c0.4,0,0.7-0.3,0.7-0.7C30.5,37.7,30.2,37.4,29.8,37.4z"/>
	<path fill="#FFFFFF" d="M42.3,37.4h-2.8l2-2c0.1-0.1,0.2-0.3,0.2-0.5c0-0.2-0.1-0.3-0.2-0.5c-0.2-0.2-0.7-0.2-0.9,0l-2,2v-2.8
		c0-0.4-0.3-0.7-0.7-0.7c-0.4,0-0.7,0.3-0.7,0.7v2.8l-2-2c-0.2-0.2-0.7-0.2-0.9,0c-0.1,0.1-0.2,0.3-0.2,0.5c0,0.2,0.1,0.3,0.2,0.5
		l2,2h-2.8c-0.4,0-0.7,0.3-0.7,0.7c0,0.4,0.3,0.7,0.7,0.7h2.8l-2,2c-0.1,0.1-0.2,0.3-0.2,0.5c0,0.2,0.1,0.3,0.2,0.5
		c0.2,0.2,0.7,0.2,0.9,0l2-2v2.8c0,0.4,0.3,0.7,0.7,0.7s0.7-0.3,0.7-0.7v-2.8l2,2c0.2,0.2,0.7,0.2,0.9,0c0.3-0.3,0.3-0.7,0-0.9l-2-2
		h2.8c0.4,0,0.7-0.3,0.7-0.7C43,37.7,42.7,37.4,42.3,37.4z"/>
	<g>
		<path fill-rule="evenodd" clip-rule="evenodd" fill="#FFFFFF" d="M36.4,14.5c-0.4,0-0.9,0.1-1.3,0.1l0,0c-0.9-4-4.1-6.9-8.1-6.9
			c-4.6,0-8.3,4-8.3,9c0,0.6-0.5,1.1-1,1.1s-1-0.5-1-1.1c0-1.4,0.3-2.9,0.7-4.1c-0.9-0.3-1.8-0.5-2.8-0.5c-4.6,0-8.3,4.2-8.3,9.2
			s3.7,9,8.3,9c3.6,0,18.8,0,21.8,0c4,0,7.3-3.5,7.3-7.9S40.5,14.5,36.4,14.5z"/>
	</g>
</g>
</svg>
