<svg version="1.1" xmlns="http://www.w3.org/2000/svg" xmlns:xlink="http://www.w3.org/1999/xlink" x="0px" y="0px"
	 viewBox="0 0 50 50" enable-background="new 0 0 50 50" xml:space="preserve">
<g id="Layer_2">
</g>
<g id="Layer_3">
	<g>
		<path fill-rule="evenodd" clip-rule="evenodd" fill="#0EBAED" d="M24.6,44c0,1.7-1.1,3-2.5,3c-1.4,0-2.5-1.3-2.5-3
			c0-1.6,2.5-7,2.5-7S24.6,42.3,24.6,44z"/>
	</g>
	<g>
		<path fill-rule="evenodd" clip-rule="evenodd" fill="#0EBAED" d="M14.6,44c0,1.7-1.1,3-2.5,3c-1.4,0-2.5-1.3-2.5-3
			c0-1.6,2.5-7,2.5-7S14.6,42.3,14.6,44z"/>
	</g>
	<g>
		<path fill-rule="evenodd" clip-rule="evenodd" fill="#0EBAED" d="M34.6,44c0,1.7-1.1,3-2.5,3c-1.4,0-2.5-1.3-2.5-3
			c0-1.6,2.5-7,2.5-7S34.6,42.3,34.6,44z"/>
	</g>
	<path fill="#F7A400" d="M43.6,15.6l3.4-2c0.3-0.2,0.4-0.5,0.3-0.9c-0.1-0.3-0.4-0.6-0.7-0.6l-4.1-0.1c-0.8,0-1.4-0.3-1.7-0.8
		c-0.3-0.4-0.3-1,0-1.7l1.5-3.5c0.1-0.3,0-0.7-0.2-0.9c-0.3-0.2-0.6-0.2-0.9,0L38,7.4c-1.3,0.9-2.6,0.4-3-1.1l-1-3.7
		C33.8,2,32.7,2,32.5,2.6l-1.3,3.6C30.7,7.6,29.4,8,28.1,7l-3-2.4c-0.3-0.2-0.6-0.2-0.9,0c-0.3,0.2-0.4,0.5-0.3,0.9L25.1,9
		c0.1,0.2,0.1,0.4,0.1,0.6c1.7,0.3,3.3,1.1,4.7,2.2c0.9-0.5,1.9-0.8,3-0.8c3.1,0.1,5.5,2.8,5.4,5.9c0,0.4-0.1,0.8-0.2,1.2
		c1.4,1,2.5,2.4,3.3,4c0.2,0,0.5-0.1,0.8-0.1l4,0.3c0.4,0,0.7-0.2,0.8-0.5c0.1-0.3,0-0.7-0.3-0.9l-3.2-2.3c-0.6-0.4-1-1-0.9-1.5
		C42.6,16.5,43,16,43.6,15.6z"/>
</g>
<g id="Layer_4">
	<g>
		<path fill-rule="evenodd" clip-rule="evenodd" fill="#FFFFFF" d="M32.9,18.5c-0.4,0-0.9,0.1-1.3,0.1l0,0c-0.9-4-4.1-6.9-8.1-6.9
			c-4.6,0-8.3,4-8.3,9c0,0.6-0.5,1.1-1,1.1s-1-0.5-1-1.1c0-1.4,0.3-2.9,0.7-4.1c-0.9-0.3-1.8-0.5-2.8-0.5c-4.6,0-8.3,4.2-8.3,9.2
			s3.7,9,8.3,9c3.6,0,18.8,0,21.8,0c4,0,7.3-3.5,7.3-7.9S37,18.5,32.9,18.5z"/>
	</g>
</g>
</svg>
