<svg version="1.1" xmlns="http://www.w3.org/2000/svg" xmlns:xlink="http://www.w3.org/1999/xlink" x="0px" y="0px"
	 viewBox="0 0 50 50" enable-background="new 0 0 50 50" xml:space="preserve">
<g id="Layer_1">
	<path fill="#F7A400" d="M14,22.5l4,0.4c0.4,0.1,0.7,0.2,1,0.3c1.1-1.2,2.3-2.1,3.7-2.6c-0.1-0.6-0.2-1.3-0.1-1.9
		c0.4-3.1,3.2-5.2,6.3-4.8c3.1,0.4,5.2,3.2,4.8,6.3c-0.1,0.7-0.3,1.3-0.6,1.8c1.2,0.9,2.2,2.1,3,3.5c0.3-0.1,0.6-0.1,1,0l3.9,0.6
		c0.3,0,0.7-0.1,0.8-0.4c0.1-0.3,0.1-0.7-0.2-0.9l-2.9-2.5c-0.6-0.5-0.8-1.1-0.8-1.6c0.1-0.5,0.5-1,1.2-1.3l3.5-1.7
		c0.3-0.1,0.5-0.5,0.4-0.8c-0.1-0.3-0.3-0.6-0.7-0.6l-4-0.4c-0.8-0.1-1.3-0.4-1.6-0.9c-0.2-0.5-0.2-1.1,0.1-1.7l1.8-3.3
		c0.2-0.3,0.1-0.7-0.1-0.9c-0.2-0.2-0.6-0.3-0.9-0.1l-3.4,1.8c-1.4,0.7-2.6,0.2-2.9-1.3l-0.6-3.7c-0.1-0.7-1.2-0.8-1.4-0.2L27.7,9
		c-0.6,1.4-2,1.6-3.1,0.5l-2.8-2.7c-0.2-0.2-0.6-0.3-0.9-0.1c-0.3,0.2-0.4,0.5-0.4,0.8l0.8,3.7c0.2,0.7,0,1.3-0.3,1.7
		c-0.4,0.4-1,0.6-1.9,0.5c0,0,0,0,0,0l-3.9-0.6c-0.3-0.1-0.7,0.1-0.8,0.4c-0.1,0.3-0.1,0.7,0.2,0.9l2.9,2.5c0.6,0.5,0.9,1.1,0.8,1.6
		c-0.1,0.5-0.5,1-1.2,1.3l-3.5,1.7c-0.3,0.1-0.5,0.5-0.4,0.8C13.4,22.2,13.6,22.5,14,22.5z"/>
</g>
<g id="Layer_2">
	<g>
		<path fill-rule="evenodd" clip-rule="evenodd" fill="#FFFFFF" d="M36,28.9c-0.4,0-0.9,0.1-1.3,0.1l0,0c-0.9-4-4.1-6.9-8.1-6.9
			c-4.6,0-8.3,4-8.3,9c0,0.6-0.5,1.1-1,1.1s-1-0.5-1-1.1c0-1.4,0.3-2.9,0.7-4.1c-0.9-0.3-1.8-0.5-2.8-0.5c-4.6,0-8.3,4.2-8.3,9.2
			s3.7,9,8.3,9c3.6,0,18.8,0,21.8,0c4,0,7.3-3.5,7.3-7.9S40,28.9,36,28.9z"/>
	</g>
</g>
</svg>
