<?xml version="1.0" encoding="iso-8859-1"?>
<!-- Generator: Adobe Illustrator 19.0.0, SVG Export Plug-In . SVG Version: 6.00 Build 0)  -->
<svg xmlns="http://www.w3.org/2000/svg" xmlns:xlink="http://www.w3.org/1999/xlink" version="1.1" id="Capa_1" x="0px" y="0px" viewBox="0 0 227.958 227.958" style="enable-background:new 0 0 227.958 227.958;" xml:space="preserve" width="512px" height="512px">
<path d="M113.979,0C65.734,0,26.483,39.251,26.483,87.496c0,36.87,22.925,68.485,55.268,81.344l26.92,55.214  c1.192,2.444,3.358,3.903,5.793,3.903c2.445,0,4.623-1.473,5.824-3.938l27.165-55.689c31.684-13.169,54.023-44.44,54.023-80.835  C201.475,39.251,162.224,0,113.979,0z M113.979,131.903c-24.526,0-44.408-19.882-44.408-44.407s19.882-44.408,44.408-44.408  s44.408,19.882,44.408,44.408S138.505,131.903,113.979,131.903z" fill="#FFFFFF"/>
<g>
</g>
<g>
</g>
<g>
</g>
<g>
</g>
<g>
</g>
<g>
</g>
<g>
</g>
<g>
</g>
<g>
</g>
<g>
</g>
<g>
</g>
<g>
</g>
<g>
</g>
<g>
</g>
<g>
</g>
</svg>
